<svg xmlns="http://www.w3.org/2000/svg" xmlns:xlink="http://www.w3.org/1999/xlink" width="512" zoomAndPan="magnify" viewBox="0 0 384 383.999986" height="512" preserveAspectRatio="xMidYMid meet" version="1.0"><defs><g/><clipPath id="e7ccc467f2"><rect x="0" width="110" y="0" height="384"/></clipPath></defs><rect x="-38.4" width="460.8" fill="#ffffff" y="-38.399999" height="460.799983" fill-opacity="1"/><rect x="-38.4" width="460.8" fill="#00bf63" y="-38.399999" height="460.799983" fill-opacity="1"/><g transform="matrix(1, 0, 0, 1, 143, 0)"><g clip-path="url(#e7ccc467f2)"><g fill="#ffffff" fill-opacity="1"><g transform="translate(0.566256, 294.189842)"><g><path d="M 89.6875 -5.25 L 89.6875 0 L 7.234375 0 L 7.234375 -5.25 L 14.046875 -5.25 C 21.992188 -5.25 27.765625 -7.566406 31.359375 -12.203125 C 33.628906 -15.234375 34.765625 -22.519531 34.765625 -34.0625 L 34.765625 -158.375 C 34.765625 -168.113281 34.148438 -174.546875 32.921875 -177.671875 C 31.972656 -180.035156 30.035156 -182.066406 27.109375 -183.765625 C 22.941406 -186.035156 18.585938 -187.171875 14.046875 -187.171875 L 7.234375 -187.171875 L 7.234375 -192.421875 L 89.6875 -192.421875 L 89.6875 -187.171875 L 82.734375 -187.171875 C 74.878906 -187.171875 69.15625 -184.851562 65.5625 -180.21875 C 63.195312 -177.195312 62.015625 -169.914062 62.015625 -158.375 L 62.015625 -34.0625 C 62.015625 -24.3125 62.628906 -17.878906 63.859375 -14.765625 C 64.804688 -12.390625 66.789062 -10.351562 69.8125 -8.65625 C 73.882812 -6.382812 78.191406 -5.25 82.734375 -5.25 Z M 89.6875 -5.25 "/></g></g></g></g></g></svg>